<?xml version="1.0" encoding="utf-8"?>
<!-- Generator: Adobe Illustrator 25.4.1, SVG Export Plug-In . SVG Version: 6.00 Build 0)  -->
<svg version="1.1" id="Capa_1" focusable="false" xmlns="http://www.w3.org/2000/svg" xmlns:xlink="http://www.w3.org/1999/xlink"
	 x="0px" y="0px" viewBox="0 0 384 512" style="enable-background:new 0 0 384 512;" xml:space="preserve">
<style type="text/css">
	.st0{fill:#0033A0;}
</style>
<path class="st0" d="M369.9,98L286,14.1C277,5.1,264.8,0,252.1,0H48C21.5,0.1,0,21.6,0,48.1v416c0,26.5,21.5,48,48,48h288
	c26.5,0,48-21.5,48-48V132C384,119.2,378.9,107,369.9,98z M256,52l76.1,76.1H256V52z M336,464.1H48v-416h160v104
	c0,13.2,10.7,24,23.9,24c0,0,0.1,0,0.1,0h104V464.1z M264.9,264c6.2-6.2,6.3-16.4,0-22.6c0,0,0,0,0,0L253.5,230
	c-6.2-6.2-16.4-6.3-22.6,0c0,0,0,0,0,0l-40,40l-39.2-39.2c-6.2-6.2-16.4-6.3-22.6,0c0,0,0,0,0,0l-11.3,11.3
	c-6.2,6.2-6.3,16.4,0,22.6c0,0,0,0,0,0l39.3,39.2l-39.6,39.6c-6.2,6.2-6.3,16.4,0,22.6c0,0,0,0,0,0l11.3,11.3
	c6.2,6.2,16.4,6.3,22.6,0c0,0,0,0,0,0l39.6-39.6l40,40c6.2,6.2,16.4,6.3,22.6,0c0,0,0,0,0,0l11.3-11.3c6.2-6.2,6.3-16.4,0-22.6
	c0,0,0,0,0,0l-40-40L264.9,264z"/>
</svg>
