<?xml version="1.0" encoding="utf-8"?>
<!-- Generator: Adobe Illustrator 25.4.1, SVG Export Plug-In . SVG Version: 6.00 Build 0)  -->
<svg version="1.1" id="Capa_1" xmlns="http://www.w3.org/2000/svg" xmlns:xlink="http://www.w3.org/1999/xlink" x="0px" y="0px"
	 viewBox="0 0 642 521" style="enable-background:new 0 0 642 521;" xml:space="preserve">
<style type="text/css">
	.st0{opacity:5.000000e-02;fill:#0033A0;enable-background:new    ;}
	.st1{opacity:5.000000e-02;fill:#0033A0;}
	.st2{fill:url(#SVGID_1_);}
	.st3{fill:url(#SVGID_00000163751541215803805480000016330895417791519627_);}
	.st4{opacity:0.1;fill:url(#SVGID_00000176044027070427375110000012307138549134454161_);}
	.st5{opacity:0.1;fill:url(#SVGID_00000031169790783559174490000016274633189655234959_);}
	.st6{opacity:0.1;fill:url(#SVGID_00000053516251342022845030000004128884232582461072_);}
	.st7{fill:url(#SVGID_00000062881320450105886520000018143799818328983704_);}
	.st8{fill:url(#SVGID_00000124841810887857504720000005904102845894672561_);}
	.st9{opacity:0.1;fill:url(#SVGID_00000106842841348477025420000016108411040768285326_);}
	.st10{opacity:0.1;fill:url(#SVGID_00000042722520864808437130000002746467086319015606_);}
	.st11{opacity:0.1;fill:url(#SVGID_00000107556305413370839080000000201789411827702921_);}
	.st12{fill:url(#SVGID_00000162327484564575357150000007434320706801738936_);}
	.st13{fill:url(#SVGID_00000143616021637807543880000005016646219092002458_);}
	.st14{opacity:0.1;fill:url(#SVGID_00000067948111979077455400000006313035648769575052_);}
	.st15{fill:url(#SVGID_00000041292140374918749150000016857002910004797590_);}
	.st16{fill:url(#SVGID_00000096741176403010347150000000032430672258886578_);}
	.st17{opacity:0.1;fill:url(#SVGID_00000125572932831727493400000011008925645848546722_);}
	.st18{opacity:0.1;fill:url(#SVGID_00000124136317927642989230000009805498025030565563_);}
	.st19{fill:#FFFFFF;}
	.st20{fill:url(#SVGID_00000064319654206184901260000018191182923562247080_);}
	.st21{fill:#FFC33B;}
	.st22{fill:#E5E5E5;}
	.st23{fill:url(#SVGID_00000070100716012688899130000006519066085566809764_);}
	.st24{fill:#B8BABA;}
	.st25{opacity:0.61;fill:#E6E9F8;}
	.st26{fill:#E6E9F8;}
	.st27{fill:#393768;}
	.st28{fill:url(#SVGID_00000051381773200363134160000004031704718514807486_);}
	.st29{fill:url(#SVGID_00000101090184483078160290000016740324235032797327_);}
	.st30{fill:url(#SVGID_00000084531155452948728270000014439016973506934147_);}
	.st31{fill:url(#SVGID_00000061443374591517824840000003760604543105718459_);}
	.st32{fill:#8D908F;}
	.st33{fill:url(#SVGID_00000020399091672132225650000004021604896923193017_);}
	.st34{fill:url(#SVGID_00000090273173786755516020000002908792952250893240_);}
	.st35{fill:url(#SVGID_00000102543770450592612440000005822160754829010568_);}
	.st36{opacity:0.1;}
	.st37{fill:url(#SVGID_00000150064857190602041390000011516396297254625707_);}
</style>
<g>
	<g>
		<path class="st0" d="M492,195.4c-24.1-50.2,40.7-35.5,1.7-123.9C454.7-17,440.3,52.3,362,88.2c-69,31.6-87.6-21.1-77.3-39.1
			c33-57.3-131.9-59.2-83.5,16.2c19.7,30.7-57.7-7.6-66,49.7c-2.2,15.2,36.3,34,36.1,51.6c-0.3,17.3-39.2,96.9-34,130
			c2.9,18.6,30.1,44.3,65.5,44.3c2.1,0,253.7,20.7,296.8-3.3C534.6,318.2,516.2,245.5,492,195.4z"/>
		<path id="Trazado_6248_1_" class="st1" d="M189.8,397.5c-78.1,0-115.7,39.9-26.8,41.9s211.4,24.9,114.5,44.8
			c-62.5,12.8-44.8,32.2,86.4,29.2c131.2-3.1,265.1-33.6,212-55.9c-53.1-22.4-57-18.5-34.2-28.7c22.8-10.2,42.2-34.6-92.1-32.7
			S189.8,397.5,189.8,397.5z"/>
	</g>
	<g>
		<g id="Search_Records_1_">
			<g>
				<g>
					<g>
						<linearGradient id="SVGID_1_" gradientUnits="userSpaceOnUse" x1="122.9814" y1="100.2198" x2="178.439" y2="100.2198">
							<stop  offset="0" style="stop-color:#F2ECA9"/>
							<stop  offset="0.999" style="stop-color:#8EB741"/>
						</linearGradient>
						<path class="st2" d="M176.5,105.2c-1.1,4.1-3.1,8.2-5.7,12l-6-7.1l-3.2-3.9l1,6.6l1.8,12.2c-8.9,8.7-20.7,13.9-30.2,9.5
							c-7.3-3.4-10.8-11.5-11.2-20.7l6.5-8.4l5-6.6l-10.8,5.4C125,97,127.9,90.3,132,85l12.9-4.1l-6.6-2.5
							c8.9-8.2,21.1-15.1,28.8-13.9c0.9,0.1,1.8,0.3,2.5,0.7c4.4,2.1,6.9,7.7,8.1,14.6l-6.2,1.7l-4.7,1.4l4.8,1.5l6.8,2.1
							C178.7,92.9,178.1,99.9,176.5,105.2z"/>
						
							<linearGradient id="SVGID_00000073691705893394386270000008457953333655439262_" gradientUnits="userSpaceOnUse" x1="135.4202" y1="161.5365" x2="169.1955" y2="161.5365">
							<stop  offset="0" style="stop-color:#F2ECA9"/>
							<stop  offset="0.999" style="stop-color:#8EB741"/>
						</linearGradient>
						<path style="fill:url(#SVGID_00000073691705893394386270000008457953333655439262_);" d="M153.1,81
							c-7.4,11.2-12.1,24.5-14,38.3c-1.9,13.8-1.3,28.2,2.3,41.8c2.1,6.8,3.9,13.6,6.2,20.4l7,20.3c4.7,13.5,9.6,26.9,14.5,40.4
							c-6-12.9-11.5-26.1-16.7-39.5c-2.6-6.7-5-13.4-7.4-20.2c-2.4-6.8-4.4-13.8-6.5-20.6c-3.5-14.1-4.1-29.1-1.7-43.1
							C139.3,104.7,144.7,91.3,153.1,81z"/>
						
							<linearGradient id="SVGID_00000176023386030779947220000014572006052846165921_" gradientUnits="userSpaceOnUse" x1="122.9814" y1="120.7237" x2="164.3366" y2="120.7237">
							<stop  offset="0" style="stop-color:#F2ECA9"/>
							<stop  offset="0.999" style="stop-color:#8EB741"/>
						</linearGradient>
						<path style="opacity:0.1;fill:url(#SVGID_00000176023386030779947220000014572006052846165921_);" d="M162.6,112.8l1.8,12.2
							c-8.9,8.7-20.7,13.9-30.2,9.5c-7.3-3.4-10.8-11.5-11.2-20.7l6.5-8.4c0.3,0.1,0.5,0.1,0.8,0.2c1.3,3.6,3,7,5.2,10.2
							c0.7,1,1.4,2.1,2.5,2.6c0.8,0.4,1.7,0.5,2.7,0.6c6.2,0.6,12.8,0,18.1-3.2C160.2,114.9,161.4,113.9,162.6,112.8z"/>
						
							<linearGradient id="SVGID_00000119105718548485488600000012223815737698373784_" gradientUnits="userSpaceOnUse" x1="167.0654" y1="72.9778" x2="177.6709" y2="72.9778">
							<stop  offset="0" style="stop-color:#F2ECA9"/>
							<stop  offset="0.999" style="stop-color:#8EB741"/>
						</linearGradient>
						<path style="opacity:0.1;fill:url(#SVGID_00000119105718548485488600000012223815737698373784_);" d="M167.9,66.5
							c-0.5-0.8-0.8-1.5-0.9-2c0.9,0.1,1.8,0.3,2.5,0.7c4.4,2.1,6.9,7.7,8.1,14.6l-6.2,1.7C171.4,76.3,170.5,71.1,167.9,66.5z"/>
						
							<linearGradient id="SVGID_00000088128738405080231990000009791721608678393506_" gradientUnits="userSpaceOnUse" x1="164.8191" y1="100.7657" x2="178.439" y2="100.7657">
							<stop  offset="0" style="stop-color:#F2ECA9"/>
							<stop  offset="0.999" style="stop-color:#8EB741"/>
						</linearGradient>
						<path style="opacity:0.1;fill:url(#SVGID_00000088128738405080231990000009791721608678393506_);" d="M176.5,105.2
							c-1.1,4.1-3.1,8.2-5.7,12l-6-7.1c1.9-2.5,3.4-5.4,4.4-8.4c1.9-5.6,2.2-11.5,2.3-17.4l6.8,2.1
							C178.7,92.9,178.1,99.9,176.5,105.2z"/>
					</g>
					<g>
						
							<linearGradient id="SVGID_00000122685852431792724370000007768302946333276861_" gradientUnits="userSpaceOnUse" x1="99.6112" y1="219.2641" x2="146.5784" y2="219.2641">
							<stop  offset="0" style="stop-color:#F2ECA9"/>
							<stop  offset="0.999" style="stop-color:#8EB741"/>
						</linearGradient>
						<path style="fill:url(#SVGID_00000122685852431792724370000007768302946333276861_);" d="M146.5,221.4
							c-0.9,6.3-7.3,10.6-14.6,12.3l-7.3-6.3l-1.4-1.2l0.3,1l2.4,7.3c-2.8,0.1-5.5-0.3-8-1c-3.3-1-7-3-10.2-5.2l1.5-5.4l0.5-1.6
							l-1.4,1.2l-3.7,3.3c-3.1-2.8-5.1-6-4.8-8.9c0.1-1,0.6-1.9,1.3-2.8c2.7-3.8,9.4-7.2,15.7-8.8l-0.9,4.2l6.2-5.2
							c4-0.4,8.4,0.4,12.5,2l-6.3,3.7l11.4-1c1.3,0.9,2.3,1.8,3.3,2.8C145.5,214.6,147,217.9,146.5,221.4z"/>
						
							<linearGradient id="SVGID_00000183231801909296213880000000387376547624736921_" gradientUnits="userSpaceOnUse" x1="113.0554" y1="243.8373" x2="189.8294" y2="243.8373">
							<stop  offset="0" style="stop-color:#F2ECA9"/>
							<stop  offset="0.999" style="stop-color:#8EB741"/>
						</linearGradient>
						<path style="fill:url(#SVGID_00000183231801909296213880000000387376547624736921_);" d="M113.1,213.6
							c8.1-0.1,16.4,1.9,24,5.4c7.6,3.5,14.8,8.5,20.5,14.8c2.8,3.3,5.7,6.4,8.4,9.8l8,10.2c5.3,6.8,10.5,13.7,15.8,20.6
							c-4.6-7.3-9.6-14.4-14.7-21.4c-2.5-3.5-5.2-6.9-7.8-10.4c-2.7-3.4-5.6-6.7-8.4-10.1c-6.1-6.4-13.5-11.6-21.4-14.9
							C129.6,214.3,121.1,212.7,113.1,213.6z"/>
						
							<linearGradient id="SVGID_00000006707516047221112230000000673729059599428226_" gradientUnits="userSpaceOnUse" x1="99.6112" y1="219.8498" x2="108.1689" y2="219.8498">
							<stop  offset="0" style="stop-color:#F2ECA9"/>
							<stop  offset="0.999" style="stop-color:#8EB741"/>
						</linearGradient>
						<path style="opacity:0.1;fill:url(#SVGID_00000006707516047221112230000000673729059599428226_);" d="M108.2,222.4l-3.7,3.3
							c-3.1-2.8-5.1-6-4.8-8.9c0.1-1,0.6-1.9,1.3-2.8c1.2,1.7,2.3,4.8,3.3,5.7C105.4,220.8,106.7,221.6,108.2,222.4z"/>
						
							<linearGradient id="SVGID_00000023996585122812367480000003867847493871402385_" gradientUnits="userSpaceOnUse" x1="107.5977" y1="228.606" x2="125.7782" y2="228.606">
							<stop  offset="0" style="stop-color:#F2ECA9"/>
							<stop  offset="0.999" style="stop-color:#8EB741"/>
						</linearGradient>
						<path style="opacity:0.1;fill:url(#SVGID_00000023996585122812367480000003867847493871402385_);" d="M123.4,227.2l2.4,7.3
							c-2.8,0.1-5.5-0.3-8-1c-3.3-1-7-3-10.2-5.2l1.5-5.4c1.2,0.6,2.5,1,3.8,1.4C116.4,225.4,119.9,226.4,123.4,227.2z"/>
						
							<linearGradient id="SVGID_00000086675215901430838330000001650519189864973701_" gradientUnits="userSpaceOnUse" x1="124.5671" y1="222.6623" x2="146.5784" y2="222.6623">
							<stop  offset="0" style="stop-color:#F2ECA9"/>
							<stop  offset="0.999" style="stop-color:#8EB741"/>
						</linearGradient>
						<path style="opacity:0.1;fill:url(#SVGID_00000086675215901430838330000001650519189864973701_);" d="M146.5,221.4
							c-0.9,6.3-7.3,10.6-14.6,12.3l-7.3-6.3c3.7,0.7,8.1,0.9,10.2-2.1c0.4-0.7,0.8-1.5,0.8-2.3c0-1-0.5-1.9-0.9-2.9
							c-1.1-2.5-1.4-6,0.8-7.5c1.2-0.9,2.7-0.9,4.3-1c1,0,2.1,0,3.1,0.2C145.5,214.6,147,217.9,146.5,221.4z"/>
					</g>
					<g>
						
							<linearGradient id="SVGID_00000036941380856936711890000013124578614754588853_" gradientUnits="userSpaceOnUse" x1="54.1616" y1="167.5775" x2="142.2144" y2="167.5775">
							<stop  offset="0" style="stop-color:#F2ECA9"/>
							<stop  offset="0.999" style="stop-color:#8EB741"/>
						</linearGradient>
						<path style="fill:url(#SVGID_00000036941380856936711890000013124578614754588853_);" d="M139,183.8
							c-12.2,17.5-47.3,14.2-64.2,2.6l-3.1-13.3l-4.3,6.8c-7.2-7.5-12.9-17.1-13.2-24.6c-0.1-2.7,0.4-5.1,1.9-7
							c3.2-4.4,10.6-7,19.3-8.3l2.2,10.8l6.2-11.6c8.2-0.4,16.8,0,23.3,1.4c5,1,9.9,3,14.5,5.6l-15.3,9.5l23.2-3l1.2-0.1
							C140.8,161.7,146,173.9,139,183.8z"/>
						
							<linearGradient id="SVGID_00000144296016008815414460000001576636017479083917_" gradientUnits="userSpaceOnUse" x1="76.3813" y1="226.1858" x2="193.5946" y2="226.1858">
							<stop  offset="0" style="stop-color:#F2ECA9"/>
							<stop  offset="0.999" style="stop-color:#8EB741"/>
						</linearGradient>
						<path style="fill:url(#SVGID_00000144296016008815414460000001576636017479083917_);" d="M76.4,159.9
							c15.7,0.3,31.3,5.4,44.8,13.6c13.6,8.2,25.2,19.7,33.7,33.2c3.7,7,7.7,13.8,11.1,20.9c3.4,7.1,6.8,14.1,10,21.3
							c6.4,14.3,12.4,28.8,17.7,43.5c-6.7-14.2-13.3-28.3-20.2-42.3l-10.4-21c-3.5-7-7.5-13.6-11.2-20.4
							c-8-13.2-19.2-24.2-32.1-32.8C106.8,167.5,91.9,161.8,76.4,159.9z"/>
						
							<linearGradient id="SVGID_00000114773335266023919500000007284169416067924664_" gradientUnits="userSpaceOnUse" x1="54.1725" y1="174.3655" x2="142.2144" y2="174.3655">
							<stop  offset="0" style="stop-color:#F2ECA9"/>
							<stop  offset="0.999" style="stop-color:#8EB741"/>
						</linearGradient>
						<path style="opacity:0.1;fill:url(#SVGID_00000114773335266023919500000007284169416067924664_);" d="M139,183.8
							c-12.2,17.5-47.3,14.2-64.2,2.6l-3.1-13.3l-4.3,6.8c-7.2-7.5-12.9-17.1-13.2-24.6c1.3,0.2,2.6,0.6,3.6,1
							c10.7,4.7,20.3,11.6,30.9,16.5c10.6,4.8,23.1,7.5,34,3.2c1.8-0.7,3.6-1.7,4.7-3.4c1-1.5,1.1-3.3,1.2-5.1
							c0.3-3.9-0.7-11.3,0.8-14.8l1.2-0.1C140.8,161.7,146,173.9,139,183.8z"/>
					</g>
					<g>
						
							<linearGradient id="SVGID_00000134946935432002875940000015487129055908165050_" gradientUnits="userSpaceOnUse" x1="147.5201" y1="145.3149" x2="200.162" y2="145.3149">
							<stop  offset="0" style="stop-color:#F2ECA9"/>
							<stop  offset="0.999" style="stop-color:#8EB741"/>
						</linearGradient>
						<path style="fill:url(#SVGID_00000134946935432002875940000015487129055908165050_);" d="M198.2,145.7l0.3,0.6
							c-4.6,15.4-24.3,34.6-40.4,29.9c-9.2-2.7-11.9-12.7-10.2-23.1l12.6-7.8l3.8-2.3l-4.5,0.5l-9.5,1.2c1.6-3.8,3.6-7.4,6.1-10.4
							c0.4-0.5,0.9-1.1,1.4-1.7c3.2-3.6,7.7-7.4,12.1-10.7l9.5,4l-3.9-7.6c5.9-3.5,11.7-5.5,15.8-4.4c7,1.9,9.6,13.9,8.6,24.9
							l-6-2.1L198.2,145.7z"/>
						
							<linearGradient id="SVGID_00000109712938820193974430000015313418511028793227_" gradientUnits="userSpaceOnUse" x1="159.2567" y1="200.075" x2="184.6452" y2="200.075">
							<stop  offset="0" style="stop-color:#F2ECA9"/>
							<stop  offset="0.999" style="stop-color:#8EB741"/>
						</linearGradient>
						<path style="fill:url(#SVGID_00000109712938820193974430000015313418511028793227_);" d="M184.6,131
							c-9.4,7.9-16.4,18.6-20.6,30.3c-4.2,11.7-5.7,24.4-4.3,36.7c1.2,6.1,2.1,12.2,3.5,18.2c1.4,6,2.7,11.9,4.4,17.9
							c3.1,11.8,6.6,23.6,10.6,35.2c-2.8-11.9-5.7-23.8-8.4-35.7l-3.9-17.9c-1.2-6-2.1-12-3.2-17.9c-1.6-11.9-0.2-24.2,3.5-35.7
							C169.8,150.5,176.1,139.7,184.6,131z"/>
						
							<linearGradient id="SVGID_00000044140433606126412140000008566904281873469603_" gradientUnits="userSpaceOnUse" x1="150.3689" y1="138.6928" x2="159.864" y2="138.6928">
							<stop  offset="0" style="stop-color:#F2ECA9"/>
							<stop  offset="0.999" style="stop-color:#8EB741"/>
						</linearGradient>
						<path style="opacity:0.1;fill:url(#SVGID_00000044140433606126412140000008566904281873469603_);" d="M159.9,143.6l-9.5,1.2
							c1.6-3.8,3.6-7.4,6.1-10.4c0.4-0.5,0.9-1.1,1.4-1.7c0.6,0.7,0.6,1.7,0.5,2.7C158.4,138.2,158.9,140.9,159.9,143.6z"/>
						
							<linearGradient id="SVGID_00000103260639818275629640000007856582738058873504_" gradientUnits="userSpaceOnUse" x1="147.5201" y1="161.1655" x2="198.5758" y2="161.1655">
							<stop  offset="0" style="stop-color:#F2ECA9"/>
							<stop  offset="0.999" style="stop-color:#8EB741"/>
						</linearGradient>
						<path style="opacity:0.1;fill:url(#SVGID_00000103260639818275629640000007856582738058873504_);" d="M198.6,146.4
							c-4.6,15.4-24.3,34.6-40.4,29.9c-9.2-2.7-11.9-12.7-10.2-23.1l12.6-7.8c1.7,3.9,4.4,7.3,7.9,9.9c1.4,1,2.8,1.7,4.4,2.2
							c1.8,0.4,3.6,0.4,5.5,0.2c7.8-1,15.5-4.7,19.7-11.4c0.1-0.1,0.1-0.3,0.2-0.4L198.6,146.4z"/>
					</g>
				</g>
			</g>
			<g>
				<g>
					<path class="st19" d="M475,244.9v134.5c0,16.7-13.5,30.2-30.2,30.2H174.3c-16.7,0-30.2-13.5-30.2-30.2V205.9
						c0-16.7,13.5-30.2,30.2-30.2h72.1c11.9,0,22.7,7,27.5,17.8l1.5,3.3c4.9,10.9,15.7,17.8,27.5,17.8h141.7c4,0,7.8,0.8,11.3,2.2
						C467.2,221.4,475,232.2,475,244.9z"/>
					<g>
						<g>
							
								<linearGradient id="SVGID_00000103246759625287672550000001940041203161951625_" gradientUnits="userSpaceOnUse" x1="264.9817" y1="177.8194" x2="456.4376" y2="177.8194">
								<stop  offset="0" style="stop-color:#2964AD"/>
								<stop  offset="1" style="stop-color:#1E3D8D"/>
							</linearGradient>
							<path style="fill:url(#SVGID_00000103246759625287672550000001940041203161951625_);" d="M456.4,80.9v215.8H265V80.9
								c0-12.2,9.9-22,22-22h147.4C446.6,58.9,456.4,68.7,456.4,80.9z"/>
						</g>
						<path class="st21" d="M407.4,64.5c0,3.9-1.6,7.5-4.2,10.1c-2.5,2.6-6.1,4.2-10.1,4.2h-64.7c-6.4,0-11.6-4.1-13.6-9.7
							c-0.5-1.5-0.8-3-0.8-4.6c0-3.9,1.6-7.5,4.2-10.1c2.5-2.6,6.1-4.2,10.1-4.2H393c1.1,0,2.1,0.1,3.1,0.4
							C402.6,51.9,407.4,57.7,407.4,64.5z"/>
						<path class="st19" d="M351.6,127.4h-59.7c-1.5,0-2.8-1.2-2.8-2.8v-12.3c0-1.5,1.2-2.8,2.8-2.8h59.7c1.5,0,2.8,1.2,2.8,2.8
							v12.3C354.4,126.2,353.1,127.4,351.6,127.4z"/>
						<path class="st19" d="M422.4,161.7H291.9c-1.5,0-2.8-1.2-2.8-2.8v-12.3c0-1.5,1.2-2.8,2.8-2.8h130.5c1.5,0,2.8,1.2,2.8,2.8
							v12.3C425.2,160.4,423.9,161.7,422.4,161.7z"/>
						<path class="st19" d="M412.1,228.3h-58.1c-3.3,0-5.9-2.7-5.9-5.9v-44.4c0-3.3,2.7-5.9,5.9-5.9h58.1c3.3,0,5.9,2.7,5.9,5.9
							v44.4C418,225.7,415.3,228.3,412.1,228.3z"/>
					</g>
					<path class="st22" d="M463.3,252.5V387c0,16.7-13.5,30.2-30.2,30.2H162.7c-16.7,0-30.2-13.5-30.2-30.2V213.5
						c0-16.7,13.5-30.2,30.2-30.2h72.1c11.9,0,22.7,7,27.5,17.8l1.5,3.3c4.9,10.9,15.7,17.8,27.5,17.8h141.7c4,0,7.8,0.8,11.3,2.2
						C455.5,229,463.3,239.8,463.3,252.5z"/>
				</g>
				<g>
					<g>
						<g>
							
								<linearGradient id="SVGID_00000039108974533212565250000013955083935127103650_" gradientUnits="userSpaceOnUse" x1="451.4655" y1="203.759" x2="467.7571" y2="203.759">
								<stop  offset="0" style="stop-color:#FDD8A0"/>
								<stop  offset="1" style="stop-color:#F9B978"/>
							</linearGradient>
							<path style="fill:url(#SVGID_00000039108974533212565250000013955083935127103650_);" d="M460.5,215.9l7.2-2.4l-3.8-8.2
								c0.5-1.3,1-2.6,1-3.6c0.5-4.9-6.3-8.5-8.8-9.9c-0.9-0.6-2.9,2.3-3.1,3.1c-0.3,1.2,0.7,3,1,5c-0.8-0.6-0.9-1.6-2-1.8
								c-0.6,0.5-0.8,2.1-0.5,2.9c1.9,2.7,3.1,4.7,5.4,6.6L460.5,215.9z"/>
							<path class="st24" d="M505.1,264c-8.4-3.1-21.1-8.2-26.9-10.5c-2-0.8-3.6-2.3-4.6-4.2c-3-6-9.8-19.8-13.3-29.9
								c-0.5-1.4-1-2.7-1.5-4.1l9.6-4l2.9,4.4l15.1,23.2l19.9,8.4L505.1,264z"/>
						</g>
						<g>
							<path class="st21" d="M431.6,125.7c-10.2-22-36.3-31.7-58.3-21.5c-22,10.2-31.7,36.3-21.6,58.4c9.4,20.4,32.6,30.1,53.5,23.2
								l4,8.6c-2,2.9-2.6,6.7-1,10.1l14.4,31.3c2.4,5.1,8.5,7.4,13.7,5c5.1-2.4,7.4-8.5,5-13.6l-14.4-31.3c-1.6-3.4-4.8-5.4-8.3-5.8
								l-4-8.6C433.2,170.1,441,146.2,431.6,125.7z M405.8,174.8c-16.9,7.8-37,0.4-44.8-16.5c-7.8-16.9-0.3-37,16.6-44.8
								c16.9-7.8,37-0.3,44.7,16.5C430,146.9,422.6,167.1,405.8,174.8z"/>
							<path class="st25" d="M422.2,130c7.8,16.9,0.4,37-16.5,44.8c-16.9,7.8-37,0.4-44.8-16.5c-7.8-16.9-0.3-37,16.6-44.8
								C394.4,105.7,414.5,113.2,422.2,130z"/>
						</g>
						<g>
							<path class="st26" d="M500.8,462.3l0.7,3.8c1.1,0.5,1.2,1,1.8,2.2c0.7,1.6,1.1,2.5,1,3.9l-19.4-2.9l6.1-3.5l1.7-2.4
								L500.8,462.3z"/>
							<path class="st27" d="M504.1,476.5c-8.8,2.2-20.8-0.7-24.7-2.4c-0.9-1-1-2.3-0.5-3.6c0.2-0.7,0.7-1.5,1.4-2
								c2.6-2.4,6.5-0.7,10.4-2.7c0,0,0,0,0.1,0.1c0.7,0.8,0,1.5,0.1,2.3c3.1,1.9,7,1.6,10.5,0.6c1.4-1,1.1-1.9,0.4-2.7
								c-0.1-0.1-0.1-0.2-0.2-0.2c-0.1-0.1-0.2-0.2-0.3-0.3l0.3,0.1l1.5,0.9c0.5,0.4,1.1,1.4,1.5,2.6
								C505.5,472.1,506,476,504.1,476.5z"/>
						</g>
						<g>
							
								<linearGradient id="SVGID_00000134932329043186558640000016029250626696203145_" gradientUnits="userSpaceOnUse" x1="484.8916" y1="467.2053" x2="504.3272" y2="467.2053">
								<stop  offset="0" style="stop-color:#FDD8A0"/>
								<stop  offset="1" style="stop-color:#F9B978"/>
							</linearGradient>
							<path style="fill:url(#SVGID_00000134932329043186558640000016029250626696203145_);" d="M500.8,462.3l0.7,3.8
								c1.1,0.5,1.2,1,1.8,2.2c0.7,1.6,1.1,2.5,1,3.9l-19.4-2.9l6.1-3.5l1.7-2.4L500.8,462.3z"/>
							<g>
								
									<linearGradient id="SVGID_00000014622769178158176990000010198776701632865714_" gradientUnits="userSpaceOnUse" x1="478.5524" y1="471.4594" x2="505.3992" y2="471.4594">
									<stop  offset="0" style="stop-color:#2964AD"/>
									<stop  offset="1" style="stop-color:#1E3D8D"/>
								</linearGradient>
								<path style="fill:url(#SVGID_00000014622769178158176990000010198776701632865714_);" d="M504.1,476.5
									c-8.8,2.2-20.8-0.7-24.7-2.4c-0.9-1-1-2.3-0.5-3.6c0.2-0.7,0.7-1.5,1.4-2c2.6-2.4,6.5-0.7,10.4-2.7c0,0,0,0,0.1,0.1
									c0.7,0.8,0,1.5,0.1,2.3c3.1,1.9,7,1.6,10.5,0.6c1.4-1,1.1-1.9,0.4-2.7c-0.1-0.1-0.1-0.2-0.2-0.2c-0.1-0.1-0.2-0.2-0.3-0.3
									l0.3,0.1l1.5,0.9c0.5,0.4,1.1,1.4,1.5,2.6C505.5,472.1,506,476,504.1,476.5z"/>
							</g>
						</g>
						<g>
							
								<linearGradient id="SVGID_00000072959911658892005300000011115621465013206159_" gradientUnits="userSpaceOnUse" x1="520.4805" y1="461.0925" x2="540.0667" y2="461.0925">
								<stop  offset="0" style="stop-color:#FDD8A0"/>
								<stop  offset="1" style="stop-color:#F9B978"/>
							</linearGradient>
							<path style="fill:url(#SVGID_00000072959911658892005300000011115621465013206159_);" d="M534.5,455.9l1.6,3.5
								c1.2,0.3,1.4,0.7,2.2,1.7c1,1.4,1.6,2.2,1.9,3.6l-19.6,1.5l5.2-4.8l1.1-2.7L534.5,455.9z"/>
							<g>
								
									<linearGradient id="SVGID_00000016766049738932632900000003922185241975200185_" gradientUnits="userSpaceOnUse" x1="514.8311" y1="465.8702" x2="541.64" y2="465.8702">
									<stop  offset="0" style="stop-color:#2964AD"/>
									<stop  offset="1" style="stop-color:#1E3D8D"/>
								</linearGradient>
								<path style="fill:url(#SVGID_00000016766049738932632900000003922185241975200185_);" d="M525.4,461.6
									c-3.4,2.8-7.6,2.1-9.6,5c-1.4,1.8-1.3,4.4,0.4,5.6c4.2,0.8,16.5,1,24.6-3.2c2.4-1.3-1.3-8.3-3.2-9.4l-2-0.6
									c1.2,0.8,2.3,1.6,0.9,3.2c-3.2,1.8-6.9,2.9-10.4,1.8C525.8,463.1,526.4,462.2,525.4,461.6z"/>
							</g>
						</g>
						<path class="st32" d="M537.9,454.9c-4,3-9.1,4.4-15,4.7c-6.5-18.7-20.2-77.1-20.9-84.9l1.2-41.8l1.2-17l15.2-6.5
							c8.1,6.8,8.9,22.1,4.4,31c-2.4,4.8-1.8,26-2.9,31.7L537.9,454.9z"/>
						<path class="st32" d="M507.3,319.1c6.3,39-9.9,43.4-8.8,63.6l5.1,81.5c-5.7,0.6-10.8,0.2-14.5-2.2l-11.7-79.9
							c-1-18.1,1.1-43.4,3.8-63.8L507.3,319.1z"/>
						<path class="st24" d="M523.9,307.9c-0.1,2-19.4,14.4-31.6,13.5l-12.6-0.2c0,0,2.7-9.7,3-14.8c0,0,0-11.8-10.3-25.1
							c-0.9-1.2-3.4-9.5-3-11.8c1.7-7.8,6.6-10.1,6.4-18.8c8.3-6,17.4-13.3,28-12.7c9.9,0.5,10.5,21.5,9.9,27.1
							c-1.5,13.3-1,18.1,0,31C514.1,302.6,523.9,307.9,523.9,307.9z"/>
						
							<linearGradient id="SVGID_00000126313325109517895300000002431845410430184119_" gradientUnits="userSpaceOnUse" x1="491.183" y1="237.5134" x2="503.9601" y2="237.5134">
							<stop  offset="0" style="stop-color:#FDD8A0"/>
							<stop  offset="1" style="stop-color:#F9B978"/>
						</linearGradient>
						<path style="fill:url(#SVGID_00000126313325109517895300000002431845410430184119_);" d="M493,244.7c3.9,0.3,8.3-1.2,11-3.8
							c-1.7-2-3.6-6.3-5.4-10.6l-7.3,2.3C492.3,237.4,493.4,242,493,244.7z"/>
						
							<linearGradient id="SVGID_00000116953743030755892510000016963741325868923271_" gradientUnits="userSpaceOnUse" x1="485.6048" y1="224.8132" x2="508.9671" y2="224.8132">
							<stop  offset="0" style="stop-color:#FDD8A0"/>
							<stop  offset="1" style="stop-color:#F9B978"/>
						</linearGradient>
						<path style="fill:url(#SVGID_00000116953743030755892510000016963741325868923271_);" d="M486.1,234.2
							c0.9,3.6,7.7,5.1,14.7,3.4c2-0.5,4.9-4.9,8.2-9.1l-4.3-16.3l-12.3-1C486.2,217.6,484.6,225.4,486.1,234.2z"/>
						<g>
							
								<linearGradient id="SVGID_00000160899362048403151600000000468167669242861205_" gradientUnits="userSpaceOnUse" x1="412.2416" y1="227.3327" x2="430.0015" y2="227.3327">
								<stop  offset="0" style="stop-color:#FDD8A0"/>
								<stop  offset="1" style="stop-color:#F9B978"/>
							</linearGradient>
							<path style="fill:url(#SVGID_00000160899362048403151600000000468167669242861205_);" d="M430,234.4l-6.4,4.1l-4.2-6.4
								c-1.3-0.4-2.7-0.9-3.5-1.4c-1-1.6-2-2.2-2.4-4c-2.1-1.5-1.5-11.3,0-10.6c1.4,2,5.6,2.6,7.6,4.9c0-1,0.3-1.9,0.9-2.9
								c0.7-0.2,1.4,0,1.8,0.7c1,3.2,1.5,6.2,1.6,9.2L430,234.4z"/>
							<path class="st24" d="M478.6,276.2c-8.9-1.2-22.4-3.2-28.6-4.2c-2.1-0.3-4.1-1.4-5.4-3.1c-4.3-5.2-14-17.1-19.7-26.1
								c-0.8-1.2-1.6-2.4-2.3-3.7l8.4-6l3.8,3.7l19.9,19.2l21-5.3L478.6,276.2z"/>
						</g>
						<path class="st36" d="M540.8,469.1c-8.1,4.2-20.4,4-24.6,3.2c-1.5-1-1.7-3-0.9-4.7c1,0,2,0.4,3,0.6c6,1.6,12.6,1.2,18.4-1.2
							c0.4-0.2,0.8-0.4,1.1-0.8c0.2-0.3,0.2-0.7,0.2-1.1v-0.1c0-1.2-0.3-2.4-1-3.5c0-0.1-0.1-0.1-0.1-0.2c-0.4-0.7-2.3-1.6-1.9-2.4
							c0.1-0.2,0.3-0.4,0.5-0.6l0.4,1l1.8,0.5C539.6,460.8,543.3,467.8,540.8,469.1z"/>
						<path class="st36" d="M504.1,476.5c-8.8,2.2-20.8-0.7-24.7-2.4c-0.9-1-1-2.3-0.5-3.6c2.3,0.4,4.5,1.4,6.8,1.9
							c1.4,0.3,2.9,0.3,4.4,0.3c3.3,0,6.6,0.1,9.9-0.4c0.7-0.1,1.4-0.2,2-0.5c0.5-0.2,0.9-0.4,1.3-0.7c0.3-0.2,0.6-0.6,0.8-1
							c0.1-0.2,0.3-0.5,0.5-0.8C505.5,472.1,506,476,504.1,476.5z"/>
						
							<linearGradient id="SVGID_00000150781325107257834120000017031608911738175882_" gradientUnits="userSpaceOnUse" x1="483.7258" y1="229.526" x2="524.0479" y2="229.526">
							<stop  offset="0" style="stop-color:#0053A0"/>
							<stop  offset="1" style="stop-color:#00307E"/>
						</linearGradient>
						<path style="fill:url(#SVGID_00000150781325107257834120000017031608911738175882_);" d="M524,228.4
							c-0.3-6.3,1.8-14.9-7.9-20.5c-1-0.6-2-1-3-1.4c-1.7-3.5-5.9-6.3-11-6.9c-3.2-0.4-6.3,0.2-8.8,1.4c-1.1-1.6-2.6-2.9-4.4-2.9
							c-5.5-0.1-6.5,10.5-3.3,16.1c3.2,5.6,7.2,3,7.2,3s1,2.5,2.6,3.6c1.6,1.2,6.1,0.1,8.5,0.8c2.4,0.8,0.6,1.6-2.3,9.9
							c-2.9,8.3,2.4,9.6,2.4,9.6c-0.8,6.2,8.6,27.2,13.9,17.3c5.3-9.9,4.7-18.6,3.8-19.6C520.6,237.7,524.3,234.7,524,228.4z"/>
					</g>
				</g>
			</g>
		</g>
	</g>
</g>
</svg>
