<?xml version="1.0" encoding="utf-8"?>
<!-- Generator: Adobe Illustrator 25.4.1, SVG Export Plug-In . SVG Version: 6.00 Build 0)  -->
<svg version="1.1" id="Capa_1" xmlns="http://www.w3.org/2000/svg" xmlns:xlink="http://www.w3.org/1999/xlink" x="0px" y="0px"
	 viewBox="0 0 642 521" style="enable-background:new 0 0 642 521;" xml:space="preserve">
<style type="text/css">
	.st0{display:none;}
	.st1{opacity:5.000000e-02;}
	.st2{fill:#0033A0;}
	.st3{opacity:0.6;}
	.st4{fill:url(#SVGID_1_);}
	.st5{fill:url(#SVGID_00000016043126549965736910000007981613169481279873_);}
	.st6{fill:url(#SVGID_00000114777745818552691060000012833505188420561549_);}
	.st7{fill:url(#SVGID_00000018936038461135814810000017780224858678384257_);}
	.st8{fill:#8D908F;}
	.st9{fill:url(#SVGID_00000137131197493053958350000002240054350315653803_);}
	.st10{fill:#B8BABA;}
	.st11{fill:url(#SVGID_00000005264669419277456550000011275861884511070605_);}
	.st12{fill:url(#SVGID_00000000915612175409166490000005882334475964145542_);}
	.st13{fill:url(#SVGID_00000088119044965642137910000003229776518505223868_);}
	.st14{fill:#F8C48B;}
	.st15{fill:#EE944C;}
	.st16{fill:#292C47;}
	.st17{fill:#BABABA;}
	.st18{fill:#9A9E9E;}
	.st19{fill:#DABEA5;}
	.st20{fill:#0C3077;}
	.st21{fill:#DCBFA5;}
	.st22{fill:#B89F8A;}
	.st23{fill:#030D4E;}
	.st24{fill:#FBD15A;}
	.st25{fill:#2F4563;}
	.st26{fill:#0D369C;}
	.st27{fill:#FFFFFF;stroke:#EFEFEF;stroke-miterlimit:10;}
	.st28{fill:#B7B9BB;}
	.st29{fill:#E8E8E8;}
	.st30{fill:#131F77;}
	.st31{fill:#FFC33B;}
	.st32{fill:url(#SVGID_00000179621255206501682160000018166441681227798417_);}
	.st33{opacity:0.45;fill:url(#SVGID_00000016790910182729731220000010938941381523368843_);}
	.st34{fill:#ACD8DC;}
	.st35{fill:#46BFE0;}
	.st36{fill:#FAE0B2;}
</style>
<g id="MH3hxY_00000110429536722126480490000005373538870720484533_" class="st0">
	
		<image style="display:inline;overflow:visible;" width="1284" height="974" id="MH3hxY_00000033359079922209202430000017945081015356765347_" xlink:href="456BDB23DF51821.png"  transform="matrix(0.5 0 0 0.5 0 34)">
	</image>
</g>
<g class="st1">
	<path id="Trazado_6431_11_" class="st2" d="M370.8,450.4c229.3,0,150.1,29,186.3,38.1c36.2,9.1,93.4,27.5-48.9,26.9
		c-76.6-0.4-36.4-37.4-159.9-15.8c-127,22.2-220.3,20-254.1-3.9c-10.3-7.3-6.5-15.9,6.6-22.1C147.7,451.1,370.8,450.4,370.8,450.4z"
		/>
</g>
<g>
	<g id="XMLID_4_" class="st1">
		<g id="XMLID_11_" class="st3">
			<path class="st2" d="M188.3,407c0,0-165.2-60.9-108.9-108c22.6-18.9,110.5-32.2,36.6-137.7c-43.5-62,19.7-152.3,120.4-95
				c85.7,48.8,145.4-55.1,221.3-62c57.7-5.2,92.5,66,57.6,121.3c-39.1,62.1,35.4,51.7,51.6,72.3c28.5,36.2-64.1,79.2-21.6,125.2
				c43.2,46.8-17.9,75.3-17.9,75.3L188.3,407z"/>
		</g>
	</g>
	<g>
		<linearGradient id="SVGID_1_" gradientUnits="userSpaceOnUse" x1="433.894" y1="386.1087" x2="456.5421" y2="386.1087">
			<stop  offset="0" style="stop-color:#0053A0"/>
			<stop  offset="1" style="stop-color:#00307E"/>
		</linearGradient>
		<path class="st4" d="M436.5,374.1c0,0-1.9,1-2.3,3.2c-0.4,2.2-0.3,3.4-0.3,3.4l9.7,15.7c0.6,0.9,1.5,1.5,2.6,1.6
			c1.4,0.1,3.6,0.1,6-0.8c1-0.4,1.8-0.7,2.5-1.1c1.8-1,2.3-3.3,1.2-5c-2.5-3.8-7.1-10.8-7.8-12.6c-1-2.5-1.7-3.4-1.7-3.4
			L436.5,374.1z"/>
		
			<linearGradient id="SVGID_00000080182052933597105590000018095469776914408857_" gradientUnits="userSpaceOnUse" x1="365.6418" y1="337.7711" x2="391.3525" y2="337.7711">
			<stop  offset="0" style="stop-color:#0053A0"/>
			<stop  offset="1" style="stop-color:#00307E"/>
		</linearGradient>
		<path style="fill:url(#SVGID_00000080182052933597105590000018095469776914408857_);" d="M371.6,328.4c0,0-2.4-0.1-3.5,1.1
			c-0.7,0.8-1.6,2.2-2.2,3.1c-0.3,0.5-0.3,1-0.2,1.6c1.1,3,5.1,13,8.4,13c3.8,0,17.2,0,17.2,0s0.7-3.4-3-5.2
			c-3.6-1.8-4.3-2.3-4.2-3.7c0.1-1.4-0.3-5.2-1.1-5.8C382.2,331.7,371.6,328.4,371.6,328.4z"/>
		
			<linearGradient id="SVGID_00000098901405914279521030000003034088226260325771_" gradientUnits="userSpaceOnUse" x1="436.5146" y1="374.127" x2="446.7998" y2="374.127">
			<stop  offset="0" style="stop-color:#FDD8A0"/>
			<stop  offset="1" style="stop-color:#F9B978"/>
		</linearGradient>
		<path style="fill:url(#SVGID_00000098901405914279521030000003034088226260325771_);" d="M436.5,372.1v3.1c0,0,1.4,2.2,5.1,2.1
			c3.7-0.1,4.7-1.3,4.7-1.3l0.5-3.2l-5-1.8L436.5,372.1z"/>
		
			<linearGradient id="SVGID_00000170279192430245731930000005804093642468604309_" gradientUnits="userSpaceOnUse" x1="370.9767" y1="329.9007" x2="384.6219" y2="329.9007">
			<stop  offset="0" style="stop-color:#FDD8A0"/>
			<stop  offset="1" style="stop-color:#F9B978"/>
		</linearGradient>
		<path style="fill:url(#SVGID_00000170279192430245731930000005804093642468604309_);" d="M372.8,326.6l-1.8,2.7
			c0,0,0.5,3.2,5.4,3.9c4.8,0.7,5.8,0.2,5.8,0.2l2.5-3.1c0,0-3.8-3.9-4-4C380.3,326.1,372.8,326.6,372.8,326.6z"/>
		<path class="st8" d="M421.5,251.8c0,0-2.9,7.8-3.4,17.6c-0.5,9.8,0.8,11.1-3.8,15.6c-4.6,4.4-20,16.7-28.4,23.9
			c-8.4,7.3-14.8,16.2-14.8,16.2s1.4,2.5,7.3,4c5.9,1.5,8.4,1.4,8.4,1.4s46.8-34,49.3-42.8c2.5-8.8,7.5-27.3,7.5-27.3l-10-17
			l-11.5,1.2L421.5,251.8z"/>
		<path class="st8" d="M443.7,260.3c0,0-0.3,17.8,1.4,26.6c1.7,8.8-3.8,24.5-6.7,43.6c-2.9,19-5,39.5-5,39.5s0.7,2.7,8.3,2.9
			c7.6,0.2,8.9-1.1,8.9-1.1s13.7-63.9,15.9-76.1c2.1-12.1,0-31.7,0-31.7l-16.1-5.4L443.7,260.3z"/>
		
			<linearGradient id="SVGID_00000080181114141256600610000004523686371519409027_" gradientUnits="userSpaceOnUse" x1="530.3984" y1="146.6465" x2="547.5757" y2="146.6465">
			<stop  offset="0" style="stop-color:#FDD8A0"/>
			<stop  offset="1" style="stop-color:#F9B978"/>
		</linearGradient>
		<path style="fill:url(#SVGID_00000080181114141256600610000004523686371519409027_);" d="M530.4,152.1c0,0,1.2-3,1.6-4
			c1.5-3.5,5.7-12.5,9.7-11.6c7.2,1.7,6.3,7,5.1,10.1c-1.2,3.1-3.1,3.1-4.7,4.9c-1.6,1.8-2.4,4.6-2.4,4.6s-2.4,0.9-2.7,0.8
			C536.8,156.7,530.4,152.1,530.4,152.1z"/>
		<path class="st10" d="M542.9,153.3c0,0-1.4,6-4.4,13.5c-2.2,5.6-9.5,21.7-13,29.4c-1.2,2.6-3.4,4.7-6,5.9c-2,0.8-4.3,1.8-6.1,2.5
			c-1.7,0.7-4.9,2.3-8.2,4.4c0,0,0,0,0,0c-4.4,2.8-8.8,6.4-10,9.7c0,0,0,0,0,0c-2,5.7-8.2,12.2-12.9,16.8c-4.8,4.6-13,28.2-13,28.2
			s-8.9,1.6-24.4-3c-15.5-4.6-23.6-16.2-23.6-16.2l7-7.6l26.5-26.5c0,0-1.7-2.1-9.9-4.1c-8.2-2.1-29.2-3.4-29.2-3.4l-3.6-12.2
			l4.2-2.7c0,0,30.6,3.4,42.6,3.4c12,0.1,18.7,1.9,18.7,1.9l10.7,0.7c0,0,3.3-0.2,6.3,0.5c2.5,0.5,9.8-3.1,14.7-6.1
			c1-0.6,2-1.3,2.7-1.8c0.7-0.5,1.7-2,2.8-4c5.5-10.1,14.3-34.8,14.3-34.8s4-0.1,7.5,1C540.3,149.9,542.9,153.3,542.9,153.3z"/>
		
			<linearGradient id="SVGID_00000018925818726658806920000008210766100181223090_" gradientUnits="userSpaceOnUse" x1="474.1125" y1="176.7056" x2="498.1337" y2="176.7056">
			<stop  offset="0" style="stop-color:#FDD8A0"/>
			<stop  offset="1" style="stop-color:#F9B978"/>
		</linearGradient>
		<path style="fill:url(#SVGID_00000018925818726658806920000008210766100181223090_);" d="M487,164.3c0,0-4.7,2.7-8.5,10
			c-2.5,4.6-3.7,8.8-4.3,11.1c-0.3,1.3,0.4,2.5,1.6,2.9c2.4,0.8,6.8,1.5,11.5-0.4c7.3-3,10.8-8.2,10.8-8.2l-0.2-6.2l-3.2-6.6
			L487,164.3z"/>
		
			<linearGradient id="SVGID_00000026132054822258401610000003672221522455203984_" gradientUnits="userSpaceOnUse" x1="475.9236" y1="197.9601" x2="495.1766" y2="197.9601">
			<stop  offset="0" style="stop-color:#FDD8A0"/>
			<stop  offset="1" style="stop-color:#F9B978"/>
		</linearGradient>
		<path style="fill:url(#SVGID_00000026132054822258401610000003672221522455203984_);" d="M480.4,188.3l-2.8,5
			c0,0-3.4,4.5-0.7,10.1c1.3,2.7,2.2,4.3,2.9,5.2c0.5,0.7,1.5,0.9,2.2,0.5c2.4-1.6,7.4-5.2,8.2-7.8c1.1-3.6,3.7-8.6,3.7-8.6l1.3-3
			l-12.6-3.1L480.4,188.3z"/>
		
			<linearGradient id="SVGID_00000060745130270345291720000000903117511028791948_" gradientUnits="userSpaceOnUse" x1="485.7037" y1="174.1488" x2="507.8319" y2="174.1488">
			<stop  offset="0" style="stop-color:#0053A0"/>
			<stop  offset="1" style="stop-color:#00307E"/>
		</linearGradient>
		<path style="fill:url(#SVGID_00000060745130270345291720000000903117511028791948_);" d="M489.6,154.7c0,0-5.4,6.9-3,9.8
			c2.5,2.9,5.1,2.7,6.1,6c1,3.3,0.8,5.1-1.2,6.5c-2,1.4-2.7,3.1-2.7,3.1s2.9-1.2,3.4,0.8c0.5,2,0.3,3.7-2.6,4.6
			c-2.9,0.9-4.4,0.7-3.8,3.4c0.5,2.2,9.3,8.1,16,2c6.8-6.1,4.4-10.5,4.4-10.5s4.5-8.3-1.6-13.8c-8-7.3-10.5-4.7-12.7-6.9
			C489.7,157.5,489.6,154.7,489.6,154.7z"/>
	</g>
	<g>
		<polygon class="st14" points="393,399.3 501,369 394.1,146.5 394.1,146.4 394.1,146.4 394.1,146.4 394.1,146.5 285.2,368.1 
			392.9,399.3 392.9,399.3 392.9,399.3 393,399.3 		"/>
		<polygon class="st15" points="390.2,399.3 408.1,396.8 391.4,146.4 372.4,396.7 390.2,399.3 390.2,399.3 390.2,399.3 390.2,399.3 
					"/>
	</g>
	<g>
		<g>
			<g>
				<g>
					<path class="st16" d="M175.1,317.5c0,0-7.7,3.9-11.2,5.4c-3.5,1.4-16.6,1.1-18,2.2c-1.4,1.2-1.1,5.1,1,5.6
						c2.2,0.5,18,3,23.4,2.1c5.4-0.9,15.2,1.8,17.5,1.2c2.3-0.6,1.6-12.6,0.9-15.3C187.9,315.9,175.1,317.5,175.1,317.5z"/>
				</g>
			</g>
		</g>
		<g>
			<g>
				<g>
					<path class="st17" d="M175.7,312.5l-0.6,5c0,0,9.9,2.5,13.6,1.2l-0.4-5.1L175.7,312.5z"/>
				</g>
			</g>
		</g>
		<g>
			<path class="st18" d="M214.4,190.7c0,0-46.1,31-51.4,37.7c-5.3,6.6-2.8,17.6-2.2,21c0.6,3.4,12.1,58.8,12.2,64.6
				c0,0,13.6,4.1,17.3-0.2c0,0-2.3-52.2-4.9-63.1c-2.6-10.9,12.8-17.2,21.7-20.7c8.9-3.5,54-22.5,53.6-31.1
				c-0.3-6-0.8-11.6-0.8-11.6S251.6,179.7,214.4,190.7z"/>
		</g>
	</g>
	<g>
		<g>
			<path class="st19" d="M141.9,84.5c0,0,2.5-5.4,3-6.3c0.4-0.9,0-3.5-0.7-6.6c-0.7-3-3.1-6.8-3.6-7c-0.5-0.2-0.9-0.6-2.3-0.2
				c-1.3,0.4-2.3,1.4-2.3,1.4s-1.8-0.3-2.9,1c0,0-1.8-0.2-2.7,1.5c0,0-1.7-0.2-2.3,1.1c0,0,0.4,2.7,0.3,3.7c-0.1,1,1.1,6.5,3.1,11.6
				C131.5,84.9,133.8,90.3,141.9,84.5z"/>
		</g>
		<path class="st19" d="M131.3,84.2c0,0,1.5,5.1,7.3,9.9c5.8,4.8,5.7-4.5,5.7-4.5s-2.3-4.3-2.2-5.6
			C142.2,82.8,131.3,84.2,131.3,84.2z"/>
		<g>
			<path class="st20" d="M166.5,124.4c-7.5-3.3-33.6-35.2-33.6-35.2l10.6-5.2c0,0,14.1,16.4,22.1,22.4c4,3,10,3.4,10.8,3.7
				c0.8,0.3,26.7-0.7,29.1-1.2c2.4-0.5,10.6-3.5,16.2-2.9c5.6,0.6,7.6,6.1,7.6,6.1c0.3,13.7-20.6,12.6-20.6,12.6
				S177,129,166.5,124.4z"/>
		</g>
		<g>
			<g>
				<g>
					<path class="st16" d="M306.7,352.4c0,0-7.4,4.6-10.7,6.3c-3.4,1.7-16.5,2.4-17.8,3.7c-1.3,1.3-0.7,5.2,1.5,5.5
						c2.2,0.4,18.2,1.5,23.5,0.2c5.3-1.3,15.3,0.6,17.5-0.2c2.2-0.8,0.6-12.7-0.3-15.3C319.4,349.8,306.7,352.4,306.7,352.4z"/>
				</g>
			</g>
		</g>
		<g>
			<g>
				<g>
					<path class="st17" d="M306,347.5l0.7,4.9c0,0,10,1.7,13,0.1l-0.8-5L306,347.5z"/>
				</g>
			</g>
		</g>
		<g>
			<path class="st21" d="M197,73l1.6-8.6c3.6,4.4,9.3,7.5,14.5,5.4c4.8-1.1,6.1-0.2,9.5,4.8c1.6-0.8,1.5-4.8,4.1-3
				c2.6,1.8,1.6,5,0.4,7.5c-0.6,1.3-2.1,2.3-2.8,3.6c-1.3,2.3,2.1,4,2.1,4l2,7.9l-6,7.9l-6,6c0,0-4.2-11.3-4.4-12.3c0,0,0,0,0,0
				c-5,1.8-11-9.6-11-9.6S197.8,79.3,197,73z"/>
			<path class="st22" d="M218.2,93.3c-1.2,1-4.6,2.4-6,2.9c-0.4,0.1,1.4,4.2,1.4,4.2l3,7l6-5l6-8l-2-8l-1-2c0,0-1.1,0.1-1.2,0.3
				C223.5,86.1,220.3,91.5,218.2,93.3z"/>
			<path id="Trazado_5909_4_" class="st23" d="M199,65.9c3.1,4.4,8.8,6.2,13.9,4.4c4.6-0.8,5.8,0.2,8.7,5.1c1.5-0.7,1.8-4.5,4.1-2.6
				s1.2,4.8-0.1,7.1c-0.7,1.2-2.1,2-2.9,3.2c-1.4,2.1-0.3,3.3,1.8,3.9c1.6-2.6,3.3-5.1,4.7-7.8c1.3-2.4,3.4-4.4,2.9-7.5
				c-0.6-5.4-1.9-10.8-3.9-15.9c-1.5-5.2-6.6-8.5-11.9-7.7c-4.8,1-9.5,3.2-14.6,1.2c-6.7-2.7-6.7-2.6-10.1,3.4
				c-3,7.1-0.5,15.4,5.9,19.7L199,65.9z"/>
		</g>
		<g>
			<path class="st24" d="M221.6,104c0,0-5.7,14.4-6.1,22.7c-0.4,8.3,6.1,33.7,6.4,38.4c0.9,12.5-5.6,27.6-5.6,27.6l45.5,11
				c0,0,1.9-13.1,2.5-29c0.5-15.9-2.6-29.2-5-38c-7.4-27.7-26.5-39.4-26.5-39.4L221.6,104z"/>
		</g>
		<path class="st18" d="M215.5,189.2c1.1-0.8,2.9-2.4,3.1-2.8l40,11.8l-0.7,5.5c0,0-32.9-7.7-46.1-11.2
			C211.7,192.5,213.7,190.5,215.5,189.2z"/>
		<path class="st17" d="M231.6,190.4c0.8,3.3,2.7,14.3,5,21.6c0.5,1.6,1,3.3,1.6,4.9c3.2,9.9,6.2,19,6.2,19
			c4.7,12.2,15.7,38.3,21.4,43.1c7.7,6.4,40.1,71.7,40.1,71.7l16.1-1.1c0,0-15.1-48.4-21.8-59.2c-7.5-12.1-19.5-28.1-20.2-41.2
			c-0.5-8.2-4.3-33.9-4.3-33.9s-4.6-28.8-16.5-48C256.2,162.5,231.6,190.4,231.6,190.4z"/>
		<g>
			<path class="st19" d="M219.2,74.6c0.4-1,1.8-5.2,5.4-2.5c3.5,2.7-2.8,10.4-3.4,10.5C220.5,82.7,215.6,82.8,219.2,74.6z"/>
		</g>
		<g>
			<path class="st24" d="M228.5,93.5c0,0-7.1,11.4-12.2,14.9l1,7.6l13.6-20.6L228.5,93.5z"/>
		</g>
		<g>
			
				<rect x="90.8" y="69" transform="matrix(-0.9997 -2.582965e-02 2.582965e-02 -0.9997 282.535 150.321)" class="st25" width="102.9" height="8.6"/>
			
				<rect x="185.9" y="68.5" transform="matrix(-0.9997 -2.581994e-02 2.581994e-02 -0.9997 377.5753 154.004)" class="st25" width="7.7" height="12.2"/>
			
				<rect x="76.2" y="64.4" transform="matrix(-0.9997 -2.583088e-02 2.583088e-02 -0.9997 190.2039 146.7413)" class="st25" width="39.8" height="15.4"/>
			
				<rect x="53.2" y="59.3" transform="matrix(-0.9997 -2.583003e-02 2.583003e-02 -0.9997 130.9339 144.4433)" class="st25" width="26.4" height="24.1"/>
		</g>
		<g>
			<path class="st19" d="M151.9,69.9c0,0-0.5,1.6-0.4,2.4c0,0,0.3,1.4,0.5,2.5c0.1,0.3,0.1,0.6,0.1,0.8c0,0.8-0.2,2.5,0.4,4.4
				c0.6,1.9,3.3,8.3,3.3,8.3l5.9-1.3l5.2,0.3c0,0,3-11.5,2.6-13.3c0-0.2-0.1-0.3-0.1-0.5c-0.4-1.5-1.4-2.4-1.7-3.2
				c-0.1-0.3-1.5-3-2.4-3.2c-1.2-0.3-2.2,0-2.8,0.6c0,0-2.4-0.4-3.9,0.4c0,0-2.2-0.5-3.7,1C154.9,69,152.6,68.7,151.9,69.9z"/>
		</g>
		<path class="st19" d="M155.8,88.2c0,0,1.8,4,5.9,9.2c4,5.2,6.4-5.2,6.4-5.2l-1.2-5.1C166.8,87.2,160.6,84.1,155.8,88.2z"/>
		<g>
			<path class="st19" d="M140.8,65.5c0,0,1.7,7.7,0.5,8.1c-1.2,0.4-1.9-0.2-1.9-0.2l-0.8,3.5c0,0-1.8,2-3.5-0.5c0,0-1.5,2.1-2.8-0.6
				c0,0-1.6,0.9-2.4-0.2c-0.8-1.1-1.7-7-1.7-7s0.8-1.4,2.1-0.5c0,0,0.8-1.7,2.7-1.5c0,0,0.9-1.2,2.9-1c0,0,2.2-2.5,4.6-1
				C140.6,64.7,140.7,65.2,140.8,65.5z"/>
		</g>
		<g>
			<path class="st19" d="M144.9,78c0,0-3.4-4.2-6.3-5.6c-0.7-0.3-1.3-0.5-1.9-0.1c-0.6,0.5-0.6,1.9,0.8,3.8c1.4,1.9,2.3,5,2.3,5
				S141.8,82.6,144.9,78z"/>
		</g>
		<g>
			<path class="st26" d="M181.9,130.2c-8-1.8-25.7-38-25.7-38l12.4-5.8c0,0,5.3,11.4,12.3,19.1c3.4,3.7,7.6,10.3,8.5,10.4
				c0.9,0.2,25.1-5.3,27.3-6.2c2.2-0.9,9.8-5.4,15.4-5.8c5.6-0.4,8.6,4.6,8.6,4.6c2.8,13.4-17.9,16.2-17.9,16.2
				S193,132.8,181.9,130.2z"/>
		</g>
	</g>
	<polygon class="st15" points="120.3,313.3 357.3,367.2 217.6,464.2 	"/>
	<g>
		<path class="st26" d="M261.4,150.1c0,0,0.8,26.1,17.3,52.5c2,3.2-24.9,6-24.9,6L261.4,150.1z"/>
		<g>
			<path class="st26" d="M216.6,130.8c0.9,2.8,1.7,5.7,2.4,8.5l0,0c1.6,6.3,3,12.6,4.1,18.8c0.4,2.2,0.8,4.4,1.1,6.5
				c4,25.6,16.6,44.9,16.6,44.9s20.4-0.6,25.3-3.8c0,0,0.1-29.3-5.1-57.7c-0.4-2.2-0.8-4.4-1.3-6.6c0,0,0,0,0,0
				c-4.9-23-13.6-43.8-28.9-46.2C230.5,95.7,212,116,216.6,130.8z"/>
		</g>
	</g>
	<g>
		<path id="Trazado_183" class="st27" d="M482.5,306.2c-3.4,11.3-17.8,49.7-17.8,49.7s4.4,5.4,16.1,7.8
			c11.7,2.5,29.8,18.5,29.8,18.5s3.4-1.1,14-15.5s10.5-21.8,14.5-42.3c2.1-10.3,7.3-19.8,14.8-27.2c4-3.8,7.4-5.5,8.3-4.3
			c2.1,2.7-4.1,7.6-4.5,8l0,0c0.2-0.1,7.6-3.2,7-8.9c-0.5-4.1-8.4-10.3-20.6-17.3s-30.4-17-40.7-9.8
			C493.1,272.3,486,294.9,482.5,306.2z"/>
		<g id="Grupo_185" transform="translate(22.085 20.639)">
			<path id="Trazado_186" class="st2" d="M523.9,275.5c0.2,0.1,0.4,0,0.4-0.2c0.1-0.2,0-0.3-0.1-0.4L497.6,259
				c-0.2-0.1-0.4,0-0.5,0.1c-0.1,0.2,0,0.4,0.1,0.5L523.9,275.5C523.9,275.4,523.9,275.5,523.9,275.5z"/>
		</g>
		<g id="Grupo_186" transform="translate(25.37 32.559)">
			<path id="Trazado_187" class="st2" d="M515.2,270.8c0.2,0.1,0.4,0,0.4-0.2c0.1-0.2,0-0.3-0.1-0.4l-26.6-15.9
				c-0.2-0.1-0.4,0-0.5,0.1c-0.1,0.2,0,0.4,0.1,0.5L515.2,270.8C515.2,270.8,515.2,270.8,515.2,270.8z"/>
		</g>
		<g id="Grupo_187" transform="translate(25.37 49.44)">
			<path id="Trazado_188" class="st2" d="M511.3,264c0.2,0.1,0.4,0,0.4-0.2c0.1-0.2,0-0.3-0.1-0.4l-18.1-10.8
				c-0.2-0.1-0.4,0-0.5,0.1c-0.1,0.2,0,0.4,0.1,0.5c0,0,0,0,0,0L511.3,264C511.3,264,511.3,264,511.3,264z"/>
		</g>
		<g id="Grupo_188" transform="translate(24.512 61.451)">
			<path id="Trazado_189" class="st2" d="M509.5,260.5c0.2,0.1,0.4,0,0.4-0.2c0.1-0.2,0-0.3-0.1-0.4L491.7,249
				c-0.2-0.1-0.4,0-0.5,0.1c-0.1,0.2,0,0.3,0.1,0.4L509.5,260.5C509.5,260.5,509.5,260.5,509.5,260.5z"/>
		</g>
		<g id="Grupo_189" transform="translate(23.015 72.084)">
			<path id="Trazado_190" class="st2" d="M509.2,257.5c0.2,0.1,0.4,0,0.4-0.2c0.1-0.2,0-0.3-0.1-0.4l-18.1-10.8
				c-0.2-0.1-0.4,0-0.5,0.1c-0.1,0.2,0,0.3,0.1,0.4L509.2,257.5C509.2,257.5,509.2,257.5,509.2,257.5z"/>
		</g>
		<g id="Grupo_190" transform="translate(23.015 93.048)">
			<path id="Trazado_191" class="st2" d="M502.5,253.7c0.2,0.1,0.4,0,0.4-0.2c0.1-0.2,0-0.3-0.1-0.4L469.1,233
				c-0.2-0.1-0.4,0-0.5,0.1c-0.1,0.2,0,0.4,0.1,0.5L502.5,253.7C502.5,253.7,502.5,253.7,502.5,253.7z"/>
		</g>
		<g id="Grupo_191" transform="translate(26.548 83.648)">
			<path id="Trazado_192" class="st2" d="M499.1,255.7c0.2,0.1,0.4,0,0.4-0.2c0.1-0.2,0-0.3-0.1-0.4L465.7,235
				c-0.2-0.1-0.4,0-0.5,0.1c-0.1,0.2,0,0.4,0.1,0.5L499.1,255.7C499,255.7,499.1,255.7,499.1,255.7z"/>
		</g>
		<g id="Grupo_192" transform="translate(23.758 102.447)">
			<path id="Trazado_193" class="st2" d="M498.7,250.6c0.2,0.1,0.4,0,0.4-0.2c0.1-0.2,0-0.3-0.1-0.4l-33.7-20.1
				c-0.2-0.1-0.4,0-0.5,0.1c-0.1,0.2,0,0.3,0.1,0.4L498.7,250.6C498.7,250.6,498.7,250.6,498.7,250.6z"/>
		</g>
		<path id="Trazado_201" class="st28" d="M554.1,297.1c1.6,0.9,2.9,2.3,3.7,4l0,0l0,0c0.4-0.3,7.1-5.7,5-8.4
			C561.8,291.5,558,293.3,554.1,297.1z"/>
		<path id="Trazado_202" class="st2" d="M551.9,288.5c-0.5,0.4-0.9,0.8-1.3,1.2c-0.4,0.5-1,1.2-1,1.2l-13.7-8c0.4-1,1.2-1.8,2.2-2.3
			L551.9,288.5z"/>
		<path id="Trazado_203" class="st2" d="M519,363.6c-0.6,1.3-1.2,2.6-2.1,3.8c-0.9,1.2-1.9,2.2-3,3.2c0,0-4.9-3.6-7.7-5.3
			c-1.7-1.1-3.5-2-5.3-2.8c0,0,2-2.3,3-3.8c0.7-1,1.2-2.1,1.6-3.2L519,363.6z"/>
	</g>
	<g>
		<path class="st29" d="M501.1,299.4l-0.1,0.1l-11.6,38.3l-1.2,3.8l-1.5,5.1l-1.4,4.4l-0.6,1.9l-1.7,5.6l-1.5,4.9l-0.7,2.4
			c-0.4,1.2-1.1,2.5-1.9,3.5c-0.1,0.1-0.2,0.2-0.4,0.4c-0.1,0.1-0.1,0.1-0.3,0.3c-0.4,0.4-0.7,0.7-1.2,1c-1.1,0.7-2.2,1.2-3.3,1.4
			c-0.5,0.1-0.9,0.1-1.4,0.1H427c-3.1-0.4-4.8-3.2-3.7-6.7l3.3-10.8l8.9-29.3l8-26.3c1.2-3.8,4.9-6.8,8.4-6.8h44.8
			C500.3,292.6,502.3,295.6,501.1,299.4z"/>
		<path class="st30" d="M477.4,290.7c-0.6,0.3-1.2,0.4-1.9,0.4c-0.6,0-1.2-0.1-1.5-0.4H477.4z"/>
		<g>
			<path class="st31" d="M484,290.7h-3.8c0.9-0.9,1.6-2.1,2-3.3c0.9-3.2-0.7-5.7-3.8-5.7c-2.2,0-4.6,1.4-6.1,3.5
				c-0.5,0.7-0.9,1.4-1.1,2.2c-0.4,1.2-0.4,2.4-0.1,3.3h-5.3c-1.1,0-2.3,0.8-3,1.9c-0.1,0.3-0.3,0.5-0.4,0.8
				c-0.1,0.3-0.1,0.5-0.1,0.8v0.1c0,0.7,0.3,1.2,0.8,1.5c0.3,0.2,0.6,0.3,1.1,0.3h18c1.4,0,2.9-1.2,3.3-2.7c0.1-0.3,0.1-0.5,0.1-0.8
				C485.8,291.5,485.1,290.7,484,290.7z M473.1,287.4c0.1-0.4,0.3-0.8,0.5-1.2c0.9-1.5,2.6-2.6,4.2-2.6c1.9,0,3.1,1.7,2.5,3.8
				c-0.4,1.2-1.2,2.3-2.3,3c-0.2,0.1-0.4,0.3-0.6,0.4c-0.6,0.3-1.2,0.4-1.9,0.4c-0.6,0-1.2-0.1-1.5-0.4
				C473.1,290.1,472.7,288.8,473.1,287.4z"/>
		</g>
		<path class="st10" d="M455.9,314.7c-0.8,2.7-3.6,5-6.2,5c-2.6,0-4-2.2-3.2-5c0.8-2.7,3.6-5,6.2-5
			C455.3,309.7,456.7,311.9,455.9,314.7z"/>
		<path class="st31" d="M477.4,313.6h-14.1c-0.8,0-1.2-0.7-1-1.5l0,0c0.2-0.8,1.1-1.5,1.9-1.5h14.1c0.8,0,1.2,0.7,1,1.5l0,0
			C479,313,478.1,313.6,477.4,313.6z"/>
		<path class="st10" d="M485.8,323.8h-24.8c-1.3,0-2-1.1-1.6-2.5l1-3.3c0.4-1.4,1.8-2.5,3.1-2.5h24.8c1.3,0,2,1.1,1.6,2.5l-1,3.3
			C488.5,322.7,487.1,323.8,485.8,323.8z"/>
		<path class="st10" d="M450.2,333.1c-0.8,2.7-3.6,5-6.2,5c-2.6,0-4-2.2-3.2-5c0.8-2.7,3.6-5,6.2-5
			C449.6,328.1,451.1,330.4,450.2,333.1z"/>
		<path class="st31" d="M471.7,332.1h-14.1c-0.8,0-1.2-0.7-1-1.5l0,0c0.2-0.8,1.1-1.5,1.9-1.5h14.1c0.8,0,1.2,0.7,1,1.5l0,0
			C473.4,331.4,472.5,332.1,471.7,332.1z"/>
		<path class="st10" d="M480.2,342.2h-24.8c-1.3,0-2-1.1-1.6-2.5l1-3.3c0.4-1.4,1.8-2.5,3.1-2.5h24.8c1.3,0,2,1.1,1.6,2.5l-1,3.3
			C482.9,341.1,481.5,342.2,480.2,342.2z"/>
		<path class="st10" d="M444.6,351.6c-0.8,2.7-3.6,5-6.2,5c-2.6,0-4-2.2-3.2-5c0.8-2.7,3.6-5,6.2-5
			C444,346.6,445.5,348.8,444.6,351.6z"/>
		<path class="st31" d="M466.1,350.6H452c-0.8,0-1.2-0.7-1-1.5l0,0c0.2-0.8,1.1-1.5,1.9-1.5H467c0.8,0,1.2,0.7,1,1.5l0,0
			C467.7,349.9,466.9,350.6,466.1,350.6z"/>
		<path class="st10" d="M474.6,360.7h-24.8c-1.3,0-2-1.1-1.6-2.5l1-3.3c0.4-1.4,1.8-2.5,3.1-2.5h24.8c1.3,0,2,1.1,1.6,2.5l-1,3.3
			C477.3,359.6,475.9,360.7,474.6,360.7z"/>
	</g>
	<g>
		
			<linearGradient id="SVGID_00000110459485976776295120000016010697428306336437_" gradientUnits="userSpaceOnUse" x1="366.9779" y1="290.0117" x2="460.64" y2="290.0117">
			<stop  offset="0" style="stop-color:#EEEFB8"/>
			<stop  offset="0.9994" style="stop-color:#92C256"/>
		</linearGradient>
		<path style="fill:url(#SVGID_00000110459485976776295120000016010697428306336437_);" d="M428,324.9c0,0,20-1.1,20-5.1
			c0-3.2-12.2-0.5-12.2-0.5s13.4-3.9,19.6-7.1c1.7-0.9,3.4-1.8,4.3-3.6c0.4-0.9,0.5-1.9,0.2-2.8c-0.8-2.3-3.6-2.5-5.8-2.2
			c-8.2,1-14,5.4-21.4,9.1c5.4-2.7,10.3-6.2,14.8-10.3c4.2-3.7,9-7.2,11.8-12.2c1.7-3.1,2.4-7.7-0.6-10.3c-3-2.5-7.3-1.3-10.5-0.2
			c-8.8,3.1-16.5,9.2-21.6,17c1.5-4.1,2.6-8.3,3.3-12.6c0.2-0.9-0.1-1.9-0.7-2.6c-1.7-1.8-4.1-0.1-5.5,1.6
			c-3.1,3.8-5.5,8.2-6.9,12.9c1-10.5,2-21.2-0.3-31.5c-0.5-2.4-1.2-4.7-2.7-6.6c-1.5-1.9-3.8-3.3-6.2-3c-2.3,0.2-4.1,1.9-5.7,3.6
			c-4.9,5.5-7.8,12.7-8,20.1c-0.2,7.4,2.3,14.7,7,20.5c-2.4-2.6-5.2-4.8-8.2-6.7c-0.7-0.4-1.7-0.8-2.2-0.2c-0.3,0.3-0.3,0.8-0.2,1.2
			c0.5,5,3.8,9.2,7,13c-6.5-7.6-16.7-11.8-26.7-11c-1.2,0.1-2.6,0.4-3.2,1.4c-0.4,0.6-0.4,1.4-0.3,2.1c0.4,3.4,2.4,6.5,5.2,8.5
			c4.8,3.4,10.1,5.9,15.4,8.4c-2.2-0.3-4.4-0.4-6.6-0.2c-0.5,0-1.1,0.1-1.4,0.5c-0.6,0.8,0.2,1.8,1,2.3c5.5,4,12.5,6,19.4,5.4"/>
		
			<linearGradient id="SVGID_00000169555544665378904790000017077159764170412674_" gradientUnits="userSpaceOnUse" x1="419.637" y1="267.8347" x2="419.637" y2="323.5935" gradientTransform="matrix(0.9992 -3.960000e-02 3.960000e-02 0.9992 -12.6218 20.5732)">
			<stop  offset="0.3656" style="stop-color:#86CF94"/>
			<stop  offset="0.9892" style="stop-color:#008166"/>
		</linearGradient>
		<path style="opacity:0.45;fill:url(#SVGID_00000169555544665378904790000017077159764170412674_);" d="M450.7,287.6
			c0.2-0.2,0.5,0.2,0.3,0.4c-6.4,4.8-12.2,10.2-17.4,16.2c-5.3,6.1-9.4,12.7-13.5,19.6c-0.1,0.2-0.5,0.1-0.4-0.2
			C426.4,309.4,438,296.8,450.7,287.6L450.7,287.6z M421.9,292.8c-3.7,9.4-5.8,21.1-5.1,31.2c0,0.3,0.4,0.2,0.4,0
			c0.2-10.1,1.7-21.5,5.2-31C422.6,292.7,422,292.5,421.9,292.8L421.9,292.8z M409.3,272.1c-1.7,17.2-0.3,35.5,4.3,52.1
			c0.1,0.3,0.5,0.1,0.4-0.1c-1.7-8.7-3.3-17.5-4.1-26.3c-0.7-8.5-0.6-17.1-0.3-25.6C409.6,272,409.3,271.9,409.3,272.1L409.3,272.1z
			 M393.7,297.8c5.2,7.3,10.9,20.9,17.7,26.8c0.3,0.2,0.6-0.1,0.4-0.4c-6.1-6.7-12.1-19.4-17.6-26.7
			C394,297.3,393.6,297.5,393.7,297.8L393.7,297.8z M449.4,309.1c-10.2,4.6-20.8,10-29.5,17.3c-0.3,0.2,0,0.7,0.3,0.5
			c9.5-6.3,18.8-12.6,29.3-17.3C449.7,309.4,449.6,309,449.4,309.1L449.4,309.1z M385.7,307.9c7.5,4.5,15.4,14,23.5,17.1
			c0.3,0.1,0.5-0.3,0.2-0.4c-7.9-3.8-15.9-12.7-23.5-17.1C385.7,307.3,385.5,307.7,385.7,307.9L385.7,307.9z"/>
		<polygon class="st34" points="431.1,371.3 402.8,371.3 395.1,323.7 438.7,323.7 		"/>
		<polygon class="st35" points="431,371.3 422.5,371.3 430.2,323.7 438.7,323.7 		"/>
	</g>
	<polygon class="st36" points="594.8,315.4 357.3,367.2 496.2,465.4 	"/>
	<polygon class="st14" points="217.6,464.2 496.2,465.4 357.4,367.1 	"/>
</g>
</svg>
